<svg width="105" height="107" viewBox="0 0 105 107" fill="none" xmlns="http://www.w3.org/2000/svg">
<rect x="1.33301" y="1.86877" width="102" height="102" rx="51" stroke="#EF4444" stroke-width="2" stroke-dasharray="8 4"/>
<rect x="8.83333" y="11.3688" width="95" height="95" rx="47.5" fill="#EF4444"/>
<rect x="8.83333" y="11.3688" width="95" height="95" rx="47.5" stroke="#EF4444"/>
<circle cx="57.6666" cy="57.5354" r="19.5" fill="white" stroke="#E9E9E9"/>
<path d="M57.6666 46.4243V57.5354L63.2222 54.2021M77.6666 57.5354C77.6666 68.5812 68.7124 77.5354 57.6666 77.5354C46.621 77.5354 37.6666 68.5812 37.6666 57.5354C37.6666 46.4897 46.621 37.5354 57.6666 37.5354C68.7124 37.5354 77.6666 46.4897 77.6666 57.5354Z" stroke="#E9E9E9" stroke-width="2" stroke-linecap="round" stroke-linejoin="round"/>
<path d="M34.2884 36.7799C45.7297 25.3288 63.9229 24.6506 76.1653 34.7389L77.4437 35.7916V29.4283C77.4437 29.2777 77.5034 29.1333 77.6097 29.027C77.7158 28.9208 77.8593 28.861 78.0091 28.861C78.159 28.861 78.3033 28.9207 78.4095 29.027C78.5156 29.1333 78.5755 29.2778 78.5755 29.4283V37.1823C78.5756 37.2945 78.542 37.4044 78.4798 37.4977C78.4176 37.5909 78.3291 37.6639 78.2259 37.7067C78.1227 37.7493 78.0091 37.7607 77.8997 37.7389C77.7903 37.717 77.6897 37.6627 77.6107 37.5836L77.6097 37.5826L77.055 37.0416C65.2934 25.8553 46.6326 26.0325 35.0901 37.5817C30.5507 42.096 27.5752 47.9472 26.5999 54.277C25.6247 60.6068 26.7005 67.0832 29.6702 72.7565L29.6722 72.7594C29.707 72.8255 29.7288 72.8978 29.7357 72.9723C29.7425 73.0469 29.7345 73.1224 29.7122 73.194C29.6899 73.2654 29.6537 73.3319 29.6058 73.3893C29.5579 73.4466 29.499 73.4935 29.4329 73.528C29.3668 73.5624 29.2942 73.584 29.22 73.5905C29.1457 73.5968 29.0704 73.5878 28.9993 73.5651C28.9283 73.5424 28.862 73.506 28.805 73.4576C28.7766 73.4335 28.7509 73.4066 28.7278 73.3776L28.6673 73.2838L28.6644 73.277L28.3812 72.7233C25.5149 66.9715 24.4976 60.4667 25.4778 54.1041C26.4897 47.5364 29.5765 41.4654 34.2864 36.7819L34.2884 36.7799ZM34.1224 80.5397C34.1223 80.4275 34.155 80.3175 34.2171 80.2242C34.2793 80.131 34.3678 80.0581 34.471 80.0153C34.5743 79.9724 34.6885 79.9611 34.7982 79.983C34.9076 80.0049 35.0082 80.0591 35.0872 80.1383L35.0882 80.1393C40.1667 85.2214 46.8951 88.3164 54.056 88.8649C61.2167 89.4132 68.3372 87.379 74.1292 83.1295C79.9213 78.8799 84.0019 72.6954 85.6341 65.6959C87.2152 58.9154 86.3978 51.803 83.3323 45.568L83.0286 44.9674C82.9601 44.8341 82.9463 44.6788 82.9915 44.5358C83.0369 44.3924 83.1379 44.273 83.2708 44.2037C83.4037 44.1346 83.5587 44.1208 83.7015 44.1656C83.8087 44.1994 83.9023 44.2648 83.972 44.3512L84.0335 44.444C87.3505 50.8296 88.3629 58.1661 86.8987 65.2125C85.4345 72.2595 81.5826 78.5843 75.9964 83.1168C70.4103 87.6491 63.4313 90.1115 56.2405 90.0875C49.0497 90.0635 42.0874 87.5545 36.5316 82.985L35.2542 81.9342V88.2965C35.2544 88.3711 35.2396 88.4453 35.2112 88.5143C35.1829 88.5832 35.1417 88.6461 35.0892 88.6989C35.0366 88.7517 34.9734 88.7933 34.9046 88.8219C34.8359 88.8504 34.7621 88.8649 34.6878 88.8649C34.6136 88.8648 34.5396 88.8504 34.471 88.8219C34.4024 88.7933 34.3399 88.7516 34.2874 88.6989C34.2348 88.646 34.1928 88.5833 34.1644 88.5143C34.136 88.4453 34.1222 88.3711 34.1224 88.2965V80.5397Z" fill="black" stroke="#E9E9E9" stroke-width="1.5625"/>
</svg>
