<svg width="110" height="107" viewBox="0 0 110 107" fill="none" xmlns="http://www.w3.org/2000/svg">
<rect x="6.66626" y="3.86877" width="102" height="102" rx="51" stroke="#FDBB4C" stroke-width="2" stroke-dasharray="8 4"/>
<rect x="1.16663" y="1.36877" width="95" height="95" rx="47.5" fill="#FDBB4C"/>
<rect x="1.16663" y="1.36877" width="95" height="95" rx="47.5" stroke="#FDBB4C"/>
<path d="M74.9723 22.8152C74.8699 22.1337 74.3477 21.592 73.6722 21.4673L48.9584 16.8954C48.7653 16.8599 48.5679 16.8599 48.3747 16.8954L23.6609 21.4673C22.9855 21.592 22.4633 22.1337 22.3609 22.8152C22.2553 23.5162 19.8365 40.1483 24.6976 54.5364C29.617 69.0971 47.0734 80.1601 47.8142 80.6238C48.075 80.787 48.3709 80.8688 48.6661 80.8688C48.9613 80.8688 49.2575 80.7873 49.518 80.6238C50.2588 80.1601 67.7152 69.0971 72.6352 54.5364C77.497 40.1483 75.0779 23.5162 74.9723 22.8152ZM48.6667 48.3558H28.1248C25.7076 37.5575 27.3911 26.5701 27.3911 26.5701L48.6667 22.7115V48.3558ZM67.9885 52.7018C63.8637 64.671 48.6667 74.0005 48.6667 74.0005V48.3558H69.2087C68.8816 49.8172 68.4801 51.275 67.9885 52.7018Z" fill="white"/>
</svg>
