<svg width="104" height="109" viewBox="0 0 104 109" fill="none" xmlns="http://www.w3.org/2000/svg">
<rect x="1" y="1.86877" width="102" height="102" rx="51" stroke="#EAB308" stroke-width="2" stroke-dasharray="8 4"/>
<rect x="0.500305" y="13.3688" width="95" height="95" rx="47.5" fill="#EAB308"/>
<rect x="0.500305" y="13.3688" width="95" height="95" rx="47.5" stroke="#EAB308"/>
<path fill-rule="evenodd" clip-rule="evenodd" d="M56.9142 38.0575C58.4507 35.8271 60.4734 34.6004 63.0924 35.9333C65.7115 37.2663 65.9908 39.4967 64.68 42.2263C64.14 43.3548 63.3342 45.0277 63.9144 45.8243C69.5205 53.1714 62.9769 64.1032 63.361 67.5551C63.815 71.6204 67.3662 79.2835 63.8875 83.2319C59.4016 88.346 50.709 87.029 38.7179 80.5766C26.7267 74.1243 20.8735 67.6188 22.7243 61.0922C24.1453 56.0418 32.5584 54.8124 36.2331 52.9696C39.3411 51.411 44.966 40.049 54.1796 40.6305C55.0123 40.7128 56.1889 39.1197 56.9142 38.0575ZM38.8656 66.647C38.0114 66.5912 37.9147 71.5566 38.8656 73.1684C39.8165 74.7802 43.5369 76.6813 46.8463 76.4397C50.1557 76.1981 52.079 73.7526 51.3322 73.1684C50.5855 72.5842 39.7198 66.7028 38.8656 66.647Z" fill="white"/>
<path d="M18.6918 46.9292C19.7905 42.7923 24.3006 38.7881 28.3621 37.7764C29.3721 37.5268 28.6442 35.1397 27.5052 35.3867C23.0515 36.3691 18.2674 40.0573 16.0701 45.9096C15.5114 47.37 18.485 47.7125 18.6918 46.9292Z" fill="white"/>
<path d="M25.9177 46.4114C27.7282 43.7933 30.1323 43.1932 32.4156 42.9595C33.4256 42.8586 33.4256 40.3042 32.3699 40.3866C29.5817 40.607 26.3179 41.146 23.6613 44.7704C22.7641 45.9839 25.4019 47.1602 25.9177 46.4114Z" fill="white"/>
<path d="M72.8858 57.2025C76.2651 60.041 77.9896 65.9357 77.1408 70.1019C76.9259 71.1348 79.3784 71.9075 79.6497 70.7551C80.7242 66.2411 79.3811 59.7356 74.9005 55.1314C73.7803 53.9816 72.2465 56.6661 72.8858 57.2025Z" fill="white"/>
<path d="M70.2749 64.3611C71.7496 67.266 71.0995 69.693 70.1728 71.8331C69.7645 72.7784 72.1015 73.9175 72.5501 72.943C73.8233 70.1736 74.7957 67.3005 72.7757 63.0308C72.1203 61.6395 69.8558 63.5327 70.2749 64.3611Z" fill="white"/>
</svg>
